<?xml version="1.0" standalone="no"?>
<!DOCTYPE svg PUBLIC "-//W3C//DTD SVG 20010904//EN"
 "http://www.w3.org/TR/2001/REC-SVG-20010904/DTD/svg10.dtd">
<svg version="1.0" xmlns="http://www.w3.org/2000/svg"
 width="1024.000000pt" height="1024.000000pt" viewBox="0 0 1024.000000 1024.000000"
 preserveAspectRatio="xMidYMid meet">

<g transform="translate(0.000000,1024.000000) scale(0.100000,-0.100000)"
fill="#000000" stroke="none">
<path d="M5067 8799 c-37 -10 -103 -74 -129 -123 -29 -56 -21 -121 20 -174
l32 -40 0 -529 c0 -420 3 -533 13 -547 11 -15 30 -18 110 -19 67 -2 100 2 109
11 10 10 13 123 15 544 1 341 5 533 12 537 5 4 21 23 35 44 21 31 26 50 26
104 0 76 -17 111 -77 159 -41 33 -115 48 -166 33z m140 -64 c18 -11 33 -26 33
-33 0 -7 7 -15 15 -18 34 -13 8 -184 -27 -184 -4 0 -15 -14 -24 -31 -14 -28
-15 -87 -12 -545 l3 -514 -82 0 -83 0 0 540 c0 432 -3 541 -13 547 -7 4 -24
25 -36 46 -34 56 -25 104 31 166 23 27 52 50 63 52 35 7 99 -6 132 -26z"/>
<path d="M3514 8661 c-51 -38 -64 -67 -64 -140 0 -43 5 -65 20 -84 19 -24 20
-40 20 -529 0 -420 2 -507 14 -524 13 -16 27 -19 110 -19 63 0 99 4 108 13 10
10 12 118 11 505 -2 512 -1 518 41 560 15 16 17 31 14 93 -3 71 -5 75 -42 111
-37 36 -42 38 -115 41 -71 3 -78 2 -117 -27z m183 -31 c10 -11 23 -20 29 -20
6 0 14 -10 18 -22 9 -35 7 -118 -3 -118 -5 0 -18 -16 -30 -36 -21 -34 -21 -45
-21 -532 l0 -497 -80 3 -81 4 1 504 c1 494 1 505 -19 533 -15 21 -21 45 -21
84 0 52 2 57 38 86 32 26 45 30 95 31 45 0 61 -4 74 -20z"/>
<path d="M6539 8667 c-81 -48 -105 -173 -45 -236 l26 -27 0 -500 c0 -391 3
-504 13 -518 11 -14 29 -17 111 -18 62 0 102 4 109 11 9 9 11 139 8 506 l-3
495 31 42 c26 36 31 51 31 101 0 75 -27 122 -84 148 -58 26 -150 25 -197 -4z
m177 -32 c12 -8 24 -12 27 -9 3 3 8 -4 12 -15 3 -12 11 -21 16 -21 5 0 9 -25
9 -56 0 -47 -5 -62 -31 -95 l-30 -38 3 -496 3 -495 -82 0 -83 0 0 495 c0 521
-1 528 -44 564 -21 18 -21 94 -1 111 8 7 15 18 15 24 0 38 143 62 186 31z"/>
<path d="M4287 8420 c-30 -9 -75 -53 -107 -104 -26 -44 -28 -138 -2 -164 53
-54 52 -46 52 -410 0 -255 3 -342 13 -355 16 -22 199 -29 219 -9 10 10 12 84
9 357 -3 296 -1 346 12 350 8 4 28 28 46 54 33 53 41 113 19 154 -17 33 -70
97 -80 97 -4 0 -17 9 -28 20 -22 22 -98 26 -153 10z m137 -50 c51 -31 96 -94
96 -134 0 -37 -45 -116 -67 -116 -7 0 -15 -10 -18 -22 -3 -13 -5 -173 -3 -356
l3 -332 -82 0 -83 0 0 346 0 347 -35 43 c-28 34 -35 51 -35 87 0 27 6 49 15
57 8 7 15 17 15 22 0 15 54 65 76 71 43 11 88 6 118 -13z"/>
<path d="M5825 8421 c-33 -10 -85 -41 -85 -50 0 -4 -13 -22 -30 -39 -26 -28
-30 -39 -30 -91 0 -47 5 -65 23 -88 60 -73 57 -54 57 -413 0 -209 4 -338 10
-351 10 -17 22 -19 116 -19 l104 0 11 28 c8 18 10 132 6 357 l-5 330 39 49
c32 39 39 57 39 91 0 58 -21 103 -69 148 -54 51 -123 69 -186 48z m157 -74
c71 -68 76 -125 17 -200 l-41 -52 4 -342 4 -343 -83 0 -83 0 0 341 0 340 -27
37 c-16 20 -34 43 -40 50 -13 14 -18 88 -7 116 3 9 13 16 20 16 8 0 19 11 24
25 5 14 16 25 25 25 8 0 15 4 15 9 0 13 46 20 97 14 29 -3 51 -13 75 -36z"/>
<path d="M3880 8000 c-19 -19 -20 -33 -20 -308 0 -219 3 -292 13 -306 10 -14
30 -18 106 -19 81 -2 94 0 107 17 11 16 14 75 14 312 0 346 8 324 -122 324
-65 0 -81 -3 -98 -20z m178 -307 l2 -283 -80 0 -80 0 0 278 c0 153 3 282 7
286 4 4 39 5 78 4 l70 -3 3 -282z"/>
<path d="M4633 8010 l-23 -9 0 -299 c0 -223 3 -302 13 -315 9 -12 36 -18 103
-23 142 -10 134 -29 134 326 0 349 7 330 -122 329 -46 0 -93 -4 -105 -9z m187
-313 c0 -156 -2 -286 -4 -288 -2 -2 -41 -3 -85 -1 l-81 4 0 284 0 284 85 0 85
0 0 -283z"/>
<path d="M5403 8010 c-22 -9 -23 -13 -23 -162 0 -84 -3 -216 -6 -293 -9 -184
-8 -185 123 -186 61 -1 98 3 108 11 13 11 15 57 15 316 l0 304 -26 10 c-31 12
-161 12 -191 0z m161 -36 c14 -5 16 -40 16 -285 l0 -279 -80 0 -80 0 0 278 c0
153 3 282 7 285 8 9 116 9 137 1z"/>
<path d="M6160 8000 c-19 -19 -20 -33 -20 -304 0 -341 -7 -321 120 -330 139
-10 130 -33 130 324 0 354 9 330 -127 330 -70 0 -86 -3 -103 -20z m190 -311
c0 -261 -2 -291 -16 -285 -9 3 -47 6 -85 6 l-69 0 0 285 0 285 85 0 85 0 0
-291z"/>
<path d="M2679 7495 c-68 -52 -92 -102 -87 -180 3 -54 8 -68 38 -101 60 -69
94 -90 147 -92 27 -1 59 4 73 13 14 8 35 19 48 24 12 6 22 15 22 20 0 6 14 24
30 41 28 29 30 35 30 109 0 64 -4 82 -20 101 -11 13 -20 26 -20 30 0 4 -22 21
-49 38 -41 27 -58 32 -108 32 -53 0 -65 -4 -104 -35z m179 -25 c7 -11 19 -20
27 -20 9 0 21 -11 27 -25 6 -14 15 -25 20 -25 4 0 8 -31 8 -70 0 -58 -3 -71
-19 -80 -11 -5 -22 -19 -26 -29 -3 -11 -22 -29 -41 -40 -63 -38 -110 -26 -178
46 -42 44 -46 52 -46 98 0 53 14 82 65 133 26 26 38 30 90 31 50 1 62 -2 73
-19z"/>
<path d="M7368 7512 c-34 -23 -98 -90 -99 -105 0 -7 -2 -28 -4 -47 -5 -51 11
-122 29 -132 9 -5 23 -22 31 -38 9 -17 23 -30 32 -30 9 0 21 -7 28 -16 18 -25
116 -30 154 -8 17 10 31 22 31 26 0 4 7 8 15 8 8 0 20 10 26 23 7 12 19 27 28
34 12 9 16 30 16 90 0 72 -2 82 -29 114 -15 19 -46 49 -68 67 -36 28 -48 32
-102 32 -41 0 -70 -6 -88 -18z m156 -37 c3 -8 17 -20 31 -25 14 -5 25 -15 25
-21 0 -6 9 -22 20 -36 14 -19 20 -41 20 -79 0 -30 -5 -54 -10 -54 -6 0 -15
-10 -21 -22 -21 -44 -66 -70 -124 -72 -39 -1 -55 2 -55 11 0 7 -11 15 -24 19
-13 3 -29 17 -35 30 -6 14 -18 27 -26 30 -11 5 -15 23 -15 80 0 63 3 76 20 86
11 7 20 18 20 25 0 7 7 13 15 13 9 0 18 7 21 15 9 22 129 21 138 0z"/>
<path d="M3390 7230 c-20 -20 -20 -29 -18 -1580 2 -1052 6 -1562 13 -1569 15
-15 3494 -16 3509 -1 8 8 12 460 14 1573 l2 1562 -21 18 c-20 16 -118 17
-1750 17 -1718 0 -1729 0 -1749 -20z m3480 -1570 l0 -1550 -1724 0 c-1688 0
-1725 0 -1731 19 -4 13 0 3052 5 3079 0 1 776 2 1725 2 l1725 0 0 -1550z"/>
<path d="M3629 6688 c0 -167 0 -627 0 -1023 1 -396 1 -863 1 -1037 0 -175 3
-318 8 -318 4 0 6 124 4 275 l-3 275 96 0 95 0 -1 -57 c-1 -32 -4 -104 -8
-160 -3 -55 -3 -99 2 -96 4 2 7 42 7 89 l0 84 100 0 99 0 3 -92 3 -93 103 4
102 3 0 -116 0 -116 903 0 902 0 0 112 0 113 68 3 c37 2 83 -1 102 -7 l35 -9
0 99 0 99 100 0 100 0 0 -91 c0 -49 3 -88 8 -86 4 3 4 49 1 104 -4 54 -7 124
-8 156 l-1 57 100 0 c55 0 100 -4 100 -9 0 -5 -8 -12 -17 -14 -14 -4 -12 -5 5
-6 l22 -1 0 784 0 784 -200 -5 -200 -6 0 96 c0 52 -2 101 -5 109 -4 10 -30 12
-110 10 l-105 -3 0 114 c0 143 10 268 21 261 5 -3 9 0 9 5 0 8 -368 11 -1220
11 l-1220 0 -1 -302z m41 280 c0 -10 2 -10 8 -1 10 15 430 17 510 2 l52 -10 0
-180 0 -180 -102 2 -103 2 -3 -101 c-2 -93 -4 -100 -25 -106 -12 -3 -100 -3
-194 1 l-173 6 0 289 c0 249 2 288 15 288 8 0 15 -6 15 -12z m1358 -710 l-3
-143 -372 -3 -373 -2 0 -535 0 -535 375 0 376 0 -3 -137 -3 -138 -377 -3 -378
-2 -1 112 c-1 62 -2 122 -3 133 -1 19 -9 20 -123 23 l-123 3 0 545 0 545 123
-2 122 -1 3 141 3 141 380 0 380 0 -3 -142z m1170 0 l-3 -143 -372 -3 -373 -2
0 -535 0 -535 375 0 376 0 -3 -137 -3 -138 -377 -3 -378 -2 -1 112 c-1 62 -2
122 -3 133 -1 19 -9 20 -123 23 l-123 3 0 545 0 545 123 -2 122 -1 3 141 3
141 380 0 380 0 -3 -142z"/>
<path d="M3838 6963 c18 -2 45 -2 60 0 15 2 0 4 -33 4 -33 0 -45 -2 -27 -4z"/>
<path d="M4013 6963 c9 -2 23 -2 30 0 6 3 -1 5 -18 5 -16 0 -22 -2 -12 -5z"/>
<path d="M3883 6783 c26 -2 68 -2 95 0 26 2 4 3 -48 3 -52 0 -74 -1 -47 -3z"/>
<path d="M3823 6685 c0 -44 2 -61 4 -37 2 23 2 59 0 80 -2 20 -4 1 -4 -43z"/>
<path d="M6082 6984 c4 -3 48 -5 100 -5 51 1 138 -4 192 -11 77 -9 101 -9 104
0 2 8 31 12 83 12 43 0 80 -1 81 -2 1 -2 5 -115 8 -253 l6 -250 2 258 2 257
-292 0 c-160 0 -289 -3 -286 -6z"/>
<path d="M6455 6790 c-3 -5 -1 -10 4 -10 6 0 11 5 11 10 0 6 -2 10 -4 10 -3 0
-8 -4 -11 -10z"/>
<path d="M6318 6783 c23 -2 59 -2 80 0 20 2 1 4 -43 4 -44 0 -61 -2 -37 -4z"/>
<path d="M6451 6754 c0 -11 3 -14 6 -6 3 7 2 16 -1 19 -3 4 -6 -2 -5 -13z"/>
<path d="M6451 6624 c0 -11 3 -14 6 -6 3 7 2 16 -1 19 -3 4 -6 -2 -5 -13z"/>
<path d="M6370 6576 c0 -2 16 -6 35 -8 19 -2 35 0 35 4 0 4 -16 8 -35 8 -19 0
-35 -2 -35 -4z"/>
<path d="M6648 4573 c2 -192 0 -248 -10 -255 -10 -7 -9 -9 2 -5 13 3 15 42 18
255 1 139 -1 252 -5 252 -5 0 -7 -111 -5 -247z"/>
<path d="M3820 4520 c0 -5 5 -10 11 -10 5 0 7 5 4 10 -3 6 -8 10 -11 10 -2 0
-4 -4 -4 -10z"/>
<path d="M4025 4520 c-3 -5 -1 -10 4 -10 6 0 11 5 11 10 0 6 -2 10 -4 10 -3 0
-8 -4 -11 -10z"/>
<path d="M4088 4523 c7 -3 16 -2 19 1 4 3 -2 6 -13 5 -11 0 -14 -3 -6 -6z"/>
<path d="M3903 4513 c20 -2 54 -2 75 0 20 2 3 4 -38 4 -41 0 -58 -2 -37 -4z"/>
<path d="M6300 4509 c0 -8 70 0 80 8 2 2 -15 3 -38 2 -23 -2 -42 -6 -42 -10z"/>
<path d="M6400 4516 c0 -2 9 -6 20 -9 11 -3 20 -1 20 4 0 5 -9 9 -20 9 -11 0
-20 -2 -20 -4z"/>
<path d="M3698 4313 c12 -2 32 -2 45 0 12 2 2 4 -23 4 -25 0 -35 -2 -22 -4z"/>
<path d="M3898 4313 c34 -2 90 -2 125 0 34 2 6 3 -63 3 -69 0 -97 -1 -62 -3z"/>
<path d="M3012 7204 c-20 -14 -22 -23 -22 -124 0 -143 0 -143 136 -138 60 2
108 8 115 15 15 15 13 232 -3 250 -16 20 -197 18 -226 -3z m198 -124 l0 -100
-90 0 -90 0 0 100 0 100 90 0 90 0 0 -100z"/>
<path d="M7042 7208 c-8 -8 -12 -51 -12 -130 0 -106 2 -118 19 -128 25 -13
181 -13 215 0 26 9 26 11 26 120 0 61 -5 120 -10 131 -10 17 -22 19 -118 19
-71 0 -112 -4 -120 -12z m208 -128 l0 -100 -90 0 -90 0 0 100 0 100 90 0 90 0
0 -100z"/>
<path d="M2573 6820 c-26 -10 -25 -10 -24 -135 2 -71 5 -93 18 -102 12 -10 74
-13 225 -13 l208 0 0 -74 c0 -41 4 -77 9 -81 6 -3 56 -6 111 -7 77 -1 105 3
116 14 12 11 15 50 15 198 0 119 -4 187 -11 194 -14 14 -635 19 -667 6z m637
-200 l0 -170 -85 0 -85 0 0 80 0 80 -225 0 -225 0 0 90 0 90 310 0 310 0 0
-170z"/>
<path d="M7052 6820 c-22 -9 -22 -11 -21 -200 1 -139 5 -193 14 -200 8 -7 56
-10 121 -8 l109 3 3 78 3 77 184 0 c101 0 195 4 209 10 26 9 26 11 26 120 0
109 0 111 -26 120 -32 13 -591 12 -622 0z m608 -120 l0 -90 -210 0 -210 0 0
-80 0 -80 -80 0 c-44 0 -80 1 -81 3 0 1 -3 77 -5 170 l-5 167 295 0 296 0 0
-90z"/>
<path d="M2179 6361 c-44 -9 -64 -24 -124 -95 -22 -25 -25 -39 -25 -102 0 -68
2 -74 36 -116 20 -23 41 -45 46 -47 6 -2 20 -13 31 -24 17 -17 29 -19 85 -14
44 3 70 10 78 21 6 9 16 16 21 16 22 0 85 91 90 130 7 52 -4 107 -27 130 -10
10 -23 28 -30 39 -6 12 -16 21 -22 21 -7 0 -21 8 -32 19 -25 22 -78 31 -127
22z m101 -56 c7 -8 19 -15 26 -15 7 0 20 -13 29 -29 8 -16 20 -31 26 -33 6 -2
11 -28 12 -58 2 -47 -2 -61 -27 -92 -15 -21 -34 -38 -42 -38 -7 0 -17 -7 -22
-15 -10 -19 -112 -34 -112 -16 0 6 -8 15 -18 19 -10 4 -33 23 -50 43 -28 32
-32 44 -32 93 0 43 5 61 20 76 11 11 20 26 20 34 0 8 11 17 25 20 14 4 25 11
25 16 0 17 106 12 120 -5z"/>
<path d="M7938 6346 c-8 -7 -23 -16 -33 -20 -11 -3 -29 -20 -40 -38 -11 -18
-26 -41 -33 -53 -8 -12 -12 -43 -10 -81 3 -56 8 -66 43 -105 21 -24 43 -46 48
-48 5 -2 18 -12 28 -22 28 -28 147 -21 167 9 8 12 20 22 28 22 7 0 19 10 25
23 7 12 20 28 31 35 27 19 27 175 0 194 -10 7 -27 25 -36 41 -10 15 -23 27
-28 27 -5 0 -16 7 -24 15 -20 20 -147 21 -166 1z m146 -41 c3 -8 12 -15 21
-15 8 0 15 -4 15 -9 0 -5 11 -19 25 -32 21 -20 25 -33 25 -81 0 -56 -3 -64
-46 -109 -49 -50 -70 -61 -110 -56 -45 5 -56 12 -109 67 -47 48 -59 151 -21
172 9 5 16 15 16 23 0 7 15 22 33 33 41 26 142 30 151 7z"/>
<path d="M2540 6250 c-17 -17 -20 -33 -20 -100 0 -124 -8 -120 260 -120 l220
0 0 -68 c0 -40 5 -73 12 -80 8 -8 47 -12 109 -12 132 0 129 -6 129 212 l0 168
-26 10 c-14 6 -161 10 -345 10 -306 0 -320 -1 -339 -20z m669 -162 c-1 -79 -3
-151 -6 -160 -4 -15 -17 -18 -84 -18 l-79 0 0 79 c0 71 -2 79 -20 84 -12 3
-116 6 -233 6 -117 0 -215 1 -219 1 -5 0 -8 34 -8 75 l0 75 325 0 325 0 -1
-142z"/>
<path d="M7045 6257 c-17 -13 -17 -26 -11 -188 5 -96 13 -180 18 -187 8 -9 40
-12 117 -10 l106 3 3 78 3 77 172 1 c95 0 183 2 197 5 40 7 50 31 50 120 0
120 19 114 -340 114 -232 0 -300 -3 -315 -13z m615 -102 l0 -75 -27 0 c-16 -1
-89 -1 -163 -1 -154 0 -397 -15 -292 -17 l62 -2 0 -75 0 -75 -80 0 -80 0 0 38
c0 22 -3 94 -7 160 l-6 122 296 0 297 0 0 -75z"/>
<path d="M2635 5808 c-15 -13 -37 -34 -50 -47 -113 -116 -107 -111 -153 -111
-34 0 -52 7 -83 32 -53 43 -124 49 -197 18 -29 -12 -52 -27 -52 -32 0 -5 -12
-20 -26 -35 -37 -37 -46 -70 -39 -135 7 -58 43 -120 83 -142 10 -5 23 -18 30
-28 22 -30 125 -25 173 8 21 14 45 36 53 49 14 21 24 23 104 26 82 4 91 6 120
34 18 16 32 34 32 40 1 5 22 27 48 48 l47 37 240 0 c302 0 285 -8 285 136 0
103 0 105 -26 114 -14 6 -144 10 -294 10 -264 0 -269 0 -295 -22z m573 -105
l-3 -88 -257 -3 c-161 -1 -258 -6 -258 -12 0 -6 -6 -10 -13 -10 -8 0 -20 -11
-27 -25 -7 -14 -19 -25 -26 -25 -7 0 -18 -9 -24 -20 -6 -11 -21 -31 -34 -45
-22 -23 -30 -25 -114 -25 -81 0 -91 -2 -97 -20 -3 -10 -23 -33 -44 -50 -31
-24 -49 -30 -85 -30 -25 0 -46 4 -46 8 0 5 -11 14 -25 20 -14 6 -25 17 -25 23
0 6 -11 20 -25 31 -22 17 -25 27 -25 89 0 53 4 71 15 75 9 4 22 18 29 31 14
28 72 53 122 53 19 0 49 -13 80 -35 42 -30 57 -35 105 -35 50 0 61 4 92 33 20
17 44 39 54 48 10 9 27 28 37 43 10 14 25 26 32 26 8 0 14 7 14 15 0 13 37 15
275 15 l276 0 -3 -87z"/>
<path d="M7053 5820 c-22 -9 -23 -15 -23 -120 0 -109 0 -111 26 -120 14 -6
122 -10 241 -10 l216 0 75 -76 75 -77 89 -5 89 -5 51 -49 50 -50 69 4 c68 4
75 7 124 58 11 11 31 32 45 46 21 21 25 37 28 97 4 72 4 72 -38 124 -45 55
-97 83 -153 83 -51 0 -107 -20 -134 -46 -19 -19 -34 -24 -74 -24 -45 0 -53 3
-92 45 -24 25 -49 45 -55 45 -6 0 -16 9 -22 20 -6 11 -27 31 -48 45 l-37 25
-240 -1 c-132 0 -250 -4 -262 -9z m512 -47 c2 -7 11 -13 20 -13 8 0 15 -7 15
-15 0 -9 16 -25 35 -36 19 -12 35 -26 35 -32 1 -7 19 -24 41 -39 34 -24 49
-28 109 -28 64 0 71 2 81 23 18 39 143 62 173 32 8 -8 18 -15 23 -15 4 0 22
-17 39 -38 25 -30 31 -47 33 -94 2 -48 -1 -58 -18 -67 -11 -6 -22 -20 -26 -30
-3 -11 -16 -23 -28 -27 -12 -4 -28 -15 -35 -25 -18 -25 -95 -26 -120 -1 -11 9
-28 24 -38 33 -10 9 -23 23 -29 32 -8 12 -33 18 -103 23 -83 6 -96 10 -123 34
-16 16 -29 31 -29 35 0 10 -43 44 -56 45 -7 0 -14 9 -17 20 -5 19 -14 20 -241
20 l-236 0 0 89 0 88 245 -1 c186 -1 246 -4 250 -13z"/>
<path d="M2852 5424 c-20 -14 -22 -23 -22 -115 0 -142 -4 -139 203 -138 89 1
173 4 187 8 25 7 25 9 28 124 l3 117 -26 10 c-15 6 -99 10 -188 10 -131 0
-167 -3 -185 -16z m358 -115 c0 -104 16 -96 -192 -91 l-148 4 0 89 0 89 170
-3 170 -2 0 -86z"/>
<path d="M7053 5430 c-22 -9 -23 -15 -23 -119 0 -146 -9 -140 218 -137 120 2
176 6 185 15 7 7 13 50 15 111 5 141 10 138 -205 139 -92 0 -178 -4 -190 -9z
m255 -40 l102 0 0 -85 0 -85 -170 0 -170 0 0 91 0 92 68 -6 c37 -4 113 -7 170
-7z"/>
<path d="M1923 5095 c-68 -60 -81 -78 -87 -124 -7 -59 6 -116 36 -149 64 -74
73 -80 118 -82 97 -4 107 -1 152 40 l43 41 115 -5 c264 -13 896 -17 923 -7
l27 11 0 109 c0 97 -2 112 -18 120 -11 6 -233 13 -538 17 l-519 6 -42 24 c-33
19 -56 24 -112 24 -60 0 -74 -3 -98 -25z m184 -27 c21 -34 50 -36 576 -43
l527 -8 0 -88 0 -89 -47 0 c-27 0 -262 5 -523 10 -521 10 -471 15 -534 -47
-19 -18 -35 -23 -79 -23 -53 0 -59 3 -102 44 -45 44 -45 44 -45 113 0 60 3 73
23 91 13 12 26 20 29 16 4 -3 9 4 13 15 6 19 14 21 80 21 48 0 77 -4 82 -12z"/>
<path d="M7042 5048 c-8 -8 -12 -49 -12 -120 0 -107 0 -109 26 -118 14 -6 150
-10 312 -10 354 0 332 -8 332 126 0 53 -5 104 -10 115 -10 18 -24 19 -323 19
-230 0 -316 -3 -325 -12z m616 -115 l-3 -88 -292 -3 -293 -2 0 90 0 90 295 0
296 0 -3 -87z"/>
<path d="M8092 4713 c-19 -9 -44 -30 -55 -46 l-22 -29 -466 6 c-320 5 -475 3
-494 -4 l-28 -11 7 -177 c4 -97 11 -181 15 -185 4 -4 57 -6 117 -5 l109 3 3
63 3 62 379 0 c213 0 381 -4 384 -9 15 -24 90 -51 140 -51 45 0 59 5 99 36 26
20 47 41 47 46 0 5 10 18 23 28 19 16 22 27 22 97 0 73 -2 82 -29 114 -55 64
-83 79 -155 79 -41 0 -79 -7 -99 -17z m175 -43 c48 -37 70 -77 72 -128 1 -52
-15 -82 -78 -141 -28 -27 -41 -31 -86 -31 -29 0 -55 4 -57 8 -1 4 -19 18 -39
30 -35 21 -45 22 -435 24 l-399 3 -3 -67 -3 -68 -78 0 -78 0 -6 98 c-4 53 -7
122 -7 152 l0 55 480 -3 480 -4 46 46 c44 44 48 46 106 46 45 0 66 -5 85 -20z"/>
<path d="M2843 4642 c-32 -3 -63 -32 -286 -262 -59 -61 -73 -70 -104 -70 -30
0 -42 7 -69 39 -50 58 -86 71 -171 64 -82 -7 -75 -3 -130 -65 -41 -46 -43 -50
-43 -112 0 -62 14 -116 31 -116 4 0 16 -13 26 -30 52 -82 155 -106 238 -55 35
22 51 25 137 25 l98 0 130 131 c71 72 130 133 130 136 0 3 14 18 31 34 26 25
39 29 85 29 l53 0 3 -62 3 -63 112 -3 c99 -2 113 -1 121 15 5 10 9 93 11 186
l2 167 -28 11 c-25 10 -284 10 -380 1z m355 -41 c11 -6 12 -39 9 -152 l-5
-144 -81 -3 -81 -3 0 66 c0 45 -4 65 -12 66 -7 0 -44 1 -82 3 l-69 2 -89 -88
c-48 -48 -88 -89 -88 -92 0 -8 -61 -66 -70 -66 -4 0 -10 -9 -13 -21 -3 -11
-14 -23 -25 -26 -11 -3 -22 -13 -25 -24 -5 -17 -15 -19 -110 -19 -58 0 -107
-3 -109 -7 -8 -19 -70 -43 -107 -43 -42 0 -53 6 -94 46 -63 62 -67 70 -67 132
0 56 2 62 35 91 19 17 35 35 35 41 0 14 130 13 161 -2 14 -6 38 -29 53 -50 26
-37 30 -38 86 -38 l58 0 71 71 c40 40 76 80 82 90 5 11 16 19 23 19 7 0 19 11
26 25 7 14 19 25 27 25 7 0 13 4 13 8 0 4 18 27 40 50 l40 41 148 4 c81 1 161
4 177 5 17 1 36 -2 43 -7z"/>
<path d="M3006 4204 c-13 -12 -16 -39 -16 -124 0 -98 2 -110 19 -120 28 -14
214 -13 229 2 8 8 12 50 12 125 0 136 3 133 -134 133 -73 0 -98 -4 -110 -16z
m204 -119 l0 -95 -90 0 -90 0 0 95 0 95 90 0 90 0 0 -95z"/>
<path d="M7048 4209 c-15 -8 -18 -26 -18 -115 0 -147 -3 -144 130 -144 132 0
130 -3 130 138 0 129 -3 132 -131 132 -52 0 -102 -5 -111 -11z m202 -124 l0
-95 -90 0 -90 0 0 95 0 95 90 0 90 0 0 -95z"/>
<path d="M2692 4025 c-18 -13 -49 -41 -68 -61 -32 -36 -34 -42 -34 -110 0 -67
2 -75 34 -113 80 -96 88 -101 160 -101 53 0 70 4 86 20 11 11 24 20 30 20 5 0
18 12 27 27 10 15 26 36 36 45 13 14 17 35 17 92 0 68 -2 76 -35 120 -20 25
-42 46 -50 46 -8 0 -19 9 -25 20 -9 17 -20 20 -78 19 -53 -1 -74 -5 -100 -24z
m152 -30 c3 -8 11 -15 17 -15 7 0 28 -16 46 -36 30 -33 33 -42 33 -100 0 -35
-4 -64 -8 -64 -4 0 -16 -13 -25 -30 -10 -16 -24 -30 -32 -30 -8 0 -19 -9 -25
-20 -9 -16 -21 -20 -61 -20 -47 0 -53 3 -104 56 -54 55 -55 57 -55 114 0 51 4
61 33 92 17 19 40 38 50 41 9 4 17 11 17 17 0 17 107 13 114 -5z"/>
<path d="M7415 4042 c-37 -8 -48 -17 -127 -99 -30 -31 -36 -126 -11 -169 44
-76 59 -95 80 -100 12 -3 24 -12 27 -20 8 -20 143 -20 165 1 9 8 36 34 61 57
l45 41 0 85 c0 75 -2 86 -22 102 -13 10 -23 23 -23 29 0 6 -10 15 -22 22 -13
6 -30 20 -38 30 -17 21 -86 31 -135 21z m105 -52 c0 -6 8 -14 18 -18 10 -4 33
-23 50 -43 28 -31 32 -44 32 -91 0 -48 -4 -58 -38 -96 -21 -23 -44 -42 -50
-42 -7 0 -12 -4 -12 -10 0 -5 -25 -10 -55 -10 -30 0 -55 4 -55 10 0 5 -11 12
-25 16 -14 3 -25 10 -25 16 0 5 -11 20 -25 34 -20 20 -26 38 -29 82 -4 64 0
82 19 82 7 0 16 11 19 25 4 16 13 25 25 25 10 0 21 7 25 15 6 18 126 22 126 5z"/>
<path d="M3501 3921 c-19 -19 -21 -33 -21 -125 0 -138 1 -139 131 -134 56 2
103 8 110 15 14 14 13 233 -2 248 -5 5 -52 12 -104 13 -84 4 -95 2 -114 -17z
m189 -121 l0 -100 -85 0 -85 0 0 93 c0 52 3 97 7 100 3 4 42 7 85 7 l78 0 0
-100z"/>
<path d="M3884 3930 c-29 -11 -29 -21 -29 -382 0 -235 4 -311 13 -320 17 -17
168 -23 205 -9 l27 11 0 345 0 345 -26 10 c-31 12 -161 12 -190 0z m154 -36
l22 -6 0 -319 0 -319 -80 0 -80 0 -1 243 c-1 346 1 391 14 399 14 9 93 10 125
2z"/>
<path d="M4253 3930 c-29 -12 -37 -60 -29 -164 5 -58 11 -85 23 -93 11 -8 51
-13 109 -13 120 0 124 5 124 142 0 130 -7 138 -122 137 -46 0 -93 -4 -105 -9z
m185 -132 l3 -98 -86 0 -85 0 -1 73 c-2 133 -6 128 88 125 l78 -3 3 -97z"/>
<path d="M4634 3930 c-28 -11 -31 -52 -30 -407 1 -217 4 -285 14 -295 20 -20
186 -24 216 -5 l24 16 -1 341 0 342 -24 9 c-30 11 -170 11 -199 -1z m186 -129
c0 -55 -3 -102 -7 -104 -5 -3 -5 -65 -2 -139 4 -73 7 -172 8 -220 l1 -88 -85
0 -85 0 0 325 0 325 85 0 85 0 0 -99z"/>
<path d="M5015 3927 c-19 -15 -20 -28 -21 -348 -1 -401 -11 -373 131 -367 52
1 99 8 105 14 15 15 14 684 -1 699 -5 5 -51 11 -102 13 -70 3 -97 0 -112 -11z
m185 -352 l0 -325 -83 0 -83 0 0 325 0 325 83 0 83 0 0 -325z"/>
<path d="M5403 3930 c-13 -5 -24 -15 -24 -22 -1 -7 -3 -159 -4 -337 -2 -392
-12 -365 130 -359 60 2 99 8 107 16 10 10 13 87 14 344 1 395 9 368 -118 367
-46 0 -93 -4 -105 -9z m185 -129 c1 -52 -1 -98 -5 -102 -4 -4 -4 -101 0 -214
5 -113 6 -212 3 -221 -5 -12 -22 -14 -88 -12 l-83 3 -1 317 c0 361 -11 327
101 325 l70 -2 3 -94z"/>
<path d="M5783 3925 c-21 -15 -21 -20 -21 -350 -1 -332 -1 -335 21 -350 25
-17 160 -21 201 -5 l26 10 0 345 0 345 -26 10 c-41 16 -176 12 -201 -5z m187
-351 l0 -325 -82 3 -83 3 -1 323 -1 322 83 0 84 0 0 -326z"/>
<path d="M6165 3927 c-19 -15 -20 -28 -21 -348 -1 -401 -11 -373 131 -367 56
2 99 8 106 15 18 18 18 678 1 695 -20 20 -192 23 -217 5z m187 -109 c1 -46 1
-92 0 -103 -1 -11 -1 -120 -1 -243 l0 -223 -83 3 -83 3 -1 323 0 322 83 0 83
0 2 -82z"/>
<path d="M6540 3920 c-17 -17 -20 -33 -20 -124 0 -136 0 -136 130 -136 127 0
130 4 130 142 0 131 -6 138 -130 138 -77 0 -93 -3 -110 -20z m190 -74 c0 -29
3 -74 6 -100 l7 -46 -92 0 -91 0 0 93 c0 52 3 97 7 100 3 4 42 7 85 7 l78 0 0
-54z"/>
<path d="M3490 3481 c-5 -11 -10 -67 -10 -125 0 -138 6 -146 119 -146 44 0 91
4 105 10 26 9 26 10 26 133 0 82 -4 127 -12 135 -8 8 -48 12 -115 12 -91 0
-103 -2 -113 -19z m200 -126 l0 -105 -85 0 -85 0 0 105 0 105 85 0 85 0 0
-105z"/>
<path d="M4237 3493 c-4 -3 -7 -62 -7 -129 0 -152 2 -154 127 -154 117 0 123
7 123 143 0 145 -2 147 -134 147 -56 0 -106 -3 -109 -7z m198 -56 c3 -12 5
-58 3 -102 l-3 -80 -82 -2 -83 -1 0 104 0 104 80 0 c74 0 80 -2 85 -23z"/>
<path d="M6530 3481 c-5 -11 -10 -67 -10 -125 0 -143 6 -149 135 -144 60 2 99
8 107 16 9 8 14 49 16 118 5 151 2 154 -133 154 -93 0 -105 -2 -115 -19z m202
-116 c2 -53 2 -100 0 -105 -2 -6 -42 -10 -88 -10 l-84 0 0 105 0 105 84 0 85
0 3 -95z"/>
</g>
</svg>
